<mxfile host="app.diagrams.net" modified="2023-05-30T05:23:51.315Z" agent="Mozilla/5.0 (Windows NT 10.0; Win64; x64) AppleWebKit/537.36 (KHTML, like Gecko) Chrome/113.0.0.0 Safari/537.36 Edg/113.0.1774.57" version="21.3.5" etag="V8YeT4XWEPRP04YkJZ8e" type="github">
  <diagram name="第 1 页" id="eC1j1g4EIkja89vCroYL">
    <mxGraphModel>
      <root>
        <mxCell id="0" />
        <mxCell id="1" parent="0" />
      </root>
    </mxGraphModel>
  </diagram>
</mxfile>
